<?xml version="1.0" encoding="UTF-8"?>
<svg id="Layer_1" xmlns="http://www.w3.org/2000/svg" version="1.1" viewBox="0 0 17 16">
  <!-- Generator: Adobe Illustrator 29.4.0, SVG Export Plug-In . SVG Version: 2.1.0 Build 152)  -->
  <defs>
    <style>
      .st0 {
        fill: #231f20;
      }
    </style>
  </defs>
  <path class="st0" d="M8.5.67c.37,0,.67.3.67.67,0,.37-.3.67-.67.67h-4c-1.1,0-2,.9-2,2v8c0,1.1.9,2,2,2h8c1.1,0,2-.9,2-2v-4c0-.37.3-.67.67-.67.37,0,.67.3.67.67v4c0,1.84-1.49,3.33-3.33,3.33H4.5c-1.84,0-3.33-1.49-3.33-3.33v-8c0-1.84,1.49-3.33,3.33-3.33h4ZM15.17.67c.37,0,.67.3.67.67v3.2c0,.37-.3.67-.67.67-.37,0-.67-.3-.67-.67v-1.59l-4.86,4.86c-.26.26-.68.26-.94,0-.26-.26-.26-.68,0-.94l4.86-4.86h-1.59c-.37,0-.67-.3-.67-.67s.3-.67.67-.67h3.2Z"/>
</svg>