<svg width="17" height="16" viewBox="0 0 17 16" fill="none" xmlns="http://www.w3.org/2000/svg">
<path d="M8.50037 0.666321C8.86844 0.666453 9.16637 0.965214 9.16638 1.33331C9.16638 1.70142 8.86844 2.00017 8.50037 2.00031H4.50037C3.3958 2.00031 2.50037 2.89574 2.50037 4.00031V12.0003C2.50053 13.1047 3.3959 14.0003 4.50037 14.0003H12.5004C13.6047 14.0002 14.5002 13.1047 14.5004 12.0003V8.00031C14.5004 7.63225 14.7984 7.33353 15.1664 7.33331C15.5346 7.33331 15.8334 7.63211 15.8334 8.00031V12.0003C15.8332 13.841 14.3411 15.3332 12.5004 15.3333H4.50037C2.65952 15.3333 1.16655 13.8411 1.16638 12.0003V4.00031C1.16638 2.15936 2.65942 0.666321 4.50037 0.666321H8.50037ZM15.1674 0.666321C15.5353 0.666558 15.8334 0.965279 15.8334 1.33331V4.53351C15.8333 4.90147 15.5353 5.19929 15.1674 5.19952C14.7992 5.19952 14.5005 4.90162 14.5004 4.53351V2.94269L9.63806 7.80499C9.37778 8.06508 8.95599 8.06503 8.69568 7.80499C8.43533 7.54464 8.43533 7.12198 8.69568 6.86163L13.557 2.00031H11.9672C11.599 2.00031 11.3002 1.7015 11.3002 1.33331C11.3002 0.965133 11.599 0.666321 11.9672 0.666321H15.1674Z" fill="#F8F8FA"/>
</svg>
